<svg width="24" height="25" viewBox="0 0 24 25" fill="none" xmlns="http://www.w3.org/2000/svg">
<path d="M12 1.55566L3 5.55566V11.5557C3 17.1057 6.84 22.2957 12 23.5557C17.16 22.2957 21 17.1057 21 11.5557V5.55566L12 1.55566ZM12 5.45566C12.5933 5.45566 13.1734 5.63161 13.6667 5.96126C14.1601 6.2909 14.5446 6.75944 14.7716 7.30761C14.9987 7.85579 15.0581 8.45899 14.9424 9.04093C14.8266 9.62288 14.5409 10.1574 14.1213 10.577C13.7018 10.9965 13.1672 11.2823 12.5853 11.398C12.0033 11.5138 11.4001 11.4544 10.8519 11.2273C10.3038 11.0002 9.83524 10.6157 9.50559 10.1224C9.17595 9.62903 9 9.04901 9 8.45566C9 7.66001 9.31607 6.89695 9.87868 6.33434C10.4413 5.77173 11.2044 5.45566 12 5.45566ZM12 13.3557C14 13.3557 18 14.4457 18 16.4357C17.3432 17.4258 16.4516 18.238 15.4047 18.7998C14.3578 19.3617 13.1881 19.6557 12 19.6557C10.8119 19.6557 9.64218 19.3617 8.59527 18.7998C7.54836 18.238 6.65677 17.4258 6 16.4357C6 14.4457 10 13.3557 12 13.3557Z" fill="white"/>
</svg>
