<svg width="32" height="32" viewBox="0 0 32 32" fill="none" xmlns="http://www.w3.org/2000/svg">
<path d="M24 20L24 12C24 9.87827 23.1571 7.84344 21.6569 6.34315C20.1566 4.84286 18.1217 4 16 4C13.8783 4 11.8434 4.84286 10.3431 6.34315C8.84285 7.84344 8 9.87827 8 12L8 22.6667C8 24.0812 8.56191 25.4377 9.5621 26.4379C10.5623 27.4381 11.9188 28 13.3333 28C14.7478 28 16.1044 27.4381 17.1046 26.4379C18.1048 25.4377 18.6667 24.0812 18.6667 22.6667L18.6667 12C18.6667 11.2928 18.3857 10.6145 17.8856 10.1144C17.3855 9.61429 16.7072 9.33333 16 9.33333C15.2928 9.33333 14.6145 9.61429 14.1144 10.1144C13.6143 10.6145 13.3333 11.2928 13.3333 12L13.3333 22.6667" stroke="#393939" stroke-width="2.66667" stroke-linecap="round" stroke-linejoin="round"/>
</svg>
