<svg width="32" height="32" viewBox="0 0 32 32" fill="none" xmlns="http://www.w3.org/2000/svg">
<path d="M32 19.4667C32 20.2667 30.4 20.8 28.5333 21.0667C27.3333 18.8 24.9333 17.0667 22.1333 15.8667C22.4 15.4667 22.6667 15.2 22.9333 14.8H24C28.1333 14.6667 32 17.2 32 19.4667ZM9.06667 14.6667H8C3.86667 14.6667 0 17.2 0 19.4667C0 20.2667 1.6 20.8 3.46667 21.0667C4.66667 18.8 7.06667 17.0667 9.86667 15.8667L9.06667 14.6667ZM16 16C18.9333 16 21.3333 13.6 21.3333 10.6667C21.3333 7.73337 18.9333 5.33337 16 5.33337C13.0667 5.33337 10.6667 7.73337 10.6667 10.6667C10.6667 13.6 13.0667 16 16 16ZM16 17.3334C10.5333 17.3334 5.33333 20.8 5.33333 24C5.33333 26.6667 16 26.6667 16 26.6667C16 26.6667 26.6667 26.6667 26.6667 24C26.6667 20.8 21.4667 17.3334 16 17.3334ZM23.6 13.3334H24C26.2667 13.3334 28 11.6 28 9.33337C28 7.06671 26.2667 5.33337 24 5.33337C23.3333 5.33337 22.8 5.46671 22.2667 5.73337C23.3333 7.06671 24 8.80004 24 10.6667C24 11.6 23.8667 12.5334 23.6 13.3334ZM8 13.3334H8.4C8.13333 12.5334 8 11.6 8 10.6667C8 8.80004 8.66667 7.06671 9.73333 5.73337C9.2 5.46671 8.66667 5.33337 8 5.33337C5.73333 5.33337 4 7.06671 4 9.33337C4 11.6 5.73333 13.3334 8 13.3334Z" fill="#DA3B01"/>
</svg>
