<svg width="32" height="33" viewBox="0 0 32 33" fill="none" xmlns="http://www.w3.org/2000/svg">
<path d="M12.5329 14.5556L18.8929 3.54227C16.9263 3.10268 14.8855 3.11549 12.9246 3.57974C10.9636 4.044 9.13369 4.94757 7.57292 6.22227L12.4529 14.6889L12.5329 14.5556ZM28.7196 12.5556C27.4929 8.66227 24.5196 5.54227 20.7196 4.10227L15.8396 12.5556H28.7196ZM29.0663 13.8889H19.0796L19.4663 14.5556L25.8129 25.5556C28.0817 23.1084 29.3394 19.8927 29.3329 16.5556C29.3329 15.6356 29.2396 14.7556 29.0663 13.8889ZM11.3863 16.5556L6.18626 7.55561C4.75778 9.10299 3.71778 10.9679 3.15211 12.9965C2.58644 15.025 2.51131 17.159 2.93292 19.2223H12.9196L11.3863 16.5556ZM3.27959 20.5556C4.50626 24.4489 7.47959 27.5689 11.2796 29.0089L16.1596 20.5556H3.27959ZM18.3063 20.5556L13.1063 29.5689C15.0729 30.0085 17.1137 29.9957 19.0746 29.5315C21.0356 29.0672 22.8655 28.1636 24.4263 26.8889L19.5463 18.4223L18.3063 20.5556Z" fill="white"/>
</svg>
