<svg width="32" height="33" viewBox="0 0 32 33" fill="none" xmlns="http://www.w3.org/2000/svg">
<path d="M12.6123 6.33175C14.319 4.43975 16.9936 3.22241 19.999 3.22241C25.1536 3.22241 29.3323 6.80375 29.3323 11.2224C29.3323 13.8744 27.8256 16.2251 25.5083 17.6811L25.3323 17.7824V23.1824C25.3323 23.4479 25.253 23.7073 25.1047 23.9274C24.9563 24.1476 24.7457 24.3185 24.4996 24.4181C24.2536 24.5178 23.9834 24.5418 23.7236 24.4869C23.4639 24.4321 23.2264 24.301 23.0416 24.1104L21.5216 22.5451C22.947 20.8597 23.7856 18.7904 23.7856 16.5544C23.7856 11.1317 18.855 6.69441 12.6123 6.33175Z" fill="white"/>
<path d="M13.846 24.4038L8.95668 29.4438C8.77191 29.6344 8.53444 29.7655 8.27469 29.8203C8.01495 29.8751 7.74475 29.8512 7.49871 29.7515C7.25267 29.6518 7.04198 29.481 6.89363 29.2608C6.74528 29.0407 6.66603 28.7813 6.66602 28.5158V23.1158L6.49002 23.0145C4.17135 21.5585 2.66602 19.2078 2.66602 16.5558C2.66602 12.1371 6.84468 8.55579 11.9993 8.55579C17.154 8.55579 21.3327 12.1371 21.3327 16.5558C21.3327 20.1905 18.5047 23.2598 14.6313 24.2331C14.3718 24.2999 14.1098 24.3568 13.846 24.4038Z" fill="white"/>
</svg>
