<svg width="32" height="33" viewBox="0 0 32 33" fill="none" xmlns="http://www.w3.org/2000/svg">
<path d="M12.6152 6.33175C14.3219 4.43975 16.9966 3.22241 20.0019 3.22241C25.1566 3.22241 29.3352 6.80375 29.3352 11.2224C29.3352 13.8744 27.8286 16.2251 25.5112 17.6811L25.3352 17.7824V23.1824C25.3352 23.4479 25.256 23.7073 25.1076 23.9274C24.9593 24.1476 24.7486 24.3185 24.5025 24.4181C24.2565 24.5178 23.9863 24.5418 23.7266 24.4869C23.4668 24.4321 23.2293 24.301 23.0446 24.1104L21.5246 22.5451C22.9499 20.8597 23.7886 18.7904 23.7886 16.5544C23.7886 11.1317 18.8579 6.69441 12.6152 6.33175Z" fill="#672BB5"/>
<path d="M13.848 24.4038L8.95863 29.4438C8.77386 29.6344 8.53639 29.7655 8.27665 29.8203C8.0169 29.8751 7.74671 29.8512 7.50066 29.7515C7.25462 29.6518 7.04393 29.481 6.89558 29.2608C6.74724 29.0407 6.66798 28.7813 6.66797 28.5158V23.1158L6.49197 23.0145C4.1733 21.5585 2.66797 19.2078 2.66797 16.5558C2.66797 12.1371 6.84664 8.55579 12.0013 8.55579C17.156 8.55579 21.3346 12.1371 21.3346 16.5558C21.3346 20.1905 18.5066 23.2598 14.6333 24.2331C14.3738 24.2999 14.1118 24.3568 13.848 24.4038Z" fill="#672BB5"/>
</svg>
