<svg width="22" height="22" viewBox="0 0 22 22" fill="none" xmlns="http://www.w3.org/2000/svg">
<path d="M1.10017 3.92795C0.735855 3.55075 0.534265 3.04554 0.538822 2.52115C0.543379 1.99676 0.753719 1.49513 1.12453 1.12432C1.49535 0.753501 1.99698 0.543163 2.52137 0.538606C3.04576 0.534049 3.55097 0.735639 3.92817 1.09995L11.0002 8.17195L18.0722 1.09996C18.2567 0.908936 18.4773 0.756571 18.7214 0.651753C18.9654 0.546935 19.2278 0.491763 19.4934 0.489455C19.7589 0.487148 20.0223 0.537751 20.2681 0.638312C20.5139 0.738874 20.7372 0.88738 20.925 1.07517C21.1127 1.26295 21.2612 1.48626 21.3618 1.73205C21.4624 1.97784 21.513 2.2412 21.5107 2.50676C21.5084 2.77232 21.4532 3.03476 21.3484 3.27876C21.2436 3.52277 21.0912 3.74346 20.9002 3.92795L13.8282 11L20.9002 18.072C21.0912 18.2564 21.2435 18.4771 21.3484 18.7211C21.4532 18.9652 21.5084 19.2276 21.5107 19.4931C21.513 19.7587 21.4624 20.0221 21.3618 20.2679C21.2612 20.5136 21.1127 20.737 20.925 20.9247C20.7372 21.1125 20.5139 21.261 20.2681 21.3616C20.0223 21.4622 19.7589 21.5128 19.4934 21.5105C19.2278 21.5081 18.9654 21.453 18.7214 21.3482C18.4773 21.2433 18.2567 21.091 18.0722 20.9L11.0002 13.828L3.92817 20.9C3.74368 21.091 3.52299 21.2433 3.27898 21.3482C3.03497 21.453 2.77253 21.5081 2.50697 21.5105C2.24141 21.5128 1.97806 21.4622 1.73226 21.3616C1.48647 21.261 1.26317 21.1125 1.07538 20.9247C0.887596 20.737 0.739088 20.5136 0.638525 20.2679C0.537964 20.0221 0.48736 19.7587 0.489668 19.4931C0.491976 19.2276 0.54715 18.9651 0.651968 18.7211C0.756787 18.4771 0.90915 18.2564 1.10017 18.0719L8.17217 11L1.10017 3.92795Z" fill="white"/>
</svg>
