<svg width="24" height="25" viewBox="0 0 24 25" fill="none" xmlns="http://www.w3.org/2000/svg">
<path opacity="0.5" d="M12 20.5557C9.87827 20.5557 7.84344 19.7128 6.34315 18.2125C4.84285 16.7122 4 14.6774 4 12.5557C4 10.4339 4.84285 8.3991 6.34315 6.89881C7.84344 5.39852 9.87827 4.55566 12 4.55566V20.5557Z" fill="white"/>
<path fill-rule="evenodd" clip-rule="evenodd" d="M16.47 9.02574C16.3295 9.16636 16.2507 9.35699 16.2507 9.55574C16.2507 9.75449 16.3295 9.94511 16.47 10.0857L18.19 11.8057H10C9.80109 11.8057 9.61032 11.8848 9.46967 12.0254C9.32902 12.1661 9.25 12.3568 9.25 12.5557C9.25 12.7546 9.32902 12.9454 9.46967 13.0861C9.61032 13.2267 9.80109 13.3057 10 13.3057H18.19L16.47 15.0257C16.3963 15.0944 16.3372 15.1772 16.2962 15.2692C16.2552 15.3612 16.2332 15.4605 16.2314 15.5612C16.2296 15.6619 16.2482 15.7619 16.2859 15.8553C16.3236 15.9487 16.3797 16.0336 16.451 16.1048C16.5222 16.176 16.607 16.2321 16.7004 16.2699C16.7938 16.3076 16.8938 16.3261 16.9945 16.3243C17.0952 16.3226 17.1945 16.3005 17.2865 16.2595C17.3785 16.2185 17.4613 16.1594 17.53 16.0857L20.53 13.0857C20.6705 12.9451 20.7493 12.7545 20.7493 12.5557C20.7493 12.357 20.6705 12.1664 20.53 12.0257L17.53 9.02574C17.3894 8.88529 17.1988 8.8064 17 8.8064C16.8012 8.8064 16.6106 8.88529 16.47 9.02574Z" fill="white"/>
</svg>
