<svg width="214" height="175" viewBox="0 0 214 175" fill="none" xmlns="http://www.w3.org/2000/svg">
<path d="M94.192 119.209C110.605 95.3072 121.103 71.0789 134.232 45.6279C137.466 39.3551 144.462 25.5535 152.463 25.3608C168.248 24.984 171.206 41.5158 171.985 53.9273C173.016 70.3001 170.217 92.4095 174.398 107.761C180.028 128.455 200.874 105.432 208.665 98.7158C211.296 98.6572 213.215 105.223 213.609 107.359C216.759 124.653 199.935 139.292 184.904 143.789C166.204 149.375 149.841 142.047 142.736 123.907C138.178 112.283 137.768 96.6053 139.309 84.2944C139.393 83.6579 139.242 83.8254 138.689 83.8421C134.299 94.5954 129.381 105.231 123.977 115.524C112.289 137.784 92.4577 171.116 65.0772 174.625C19.8508 180.412 22.1632 117.81 32.2927 89.6626L27.3411 92.9455C18.1919 98.2133 2.65843 98.9168 0.329245 85.9023C0.144921 84.8555 -0.290754 82.142 0.295731 81.4218C16.0554 71.7405 28.2124 57.3024 37.7386 41.5996C42.6399 33.5179 46.5945 24.8835 51.3283 16.718C56.5313 7.73186 62.438 -2.79527 74.6034 0.680273C89.852 5.03517 84.5066 32.3789 82.278 43.777C77.9882 65.7107 70.0204 87.326 66.3507 109.31C64.9766 117.534 62.1531 135.749 71.6291 140.037C76.4885 142.231 80.5604 137.039 83.3839 133.764C87.2547 129.275 90.849 124.1 94.2087 119.209H94.192Z" fill="#672BB5"/>
</svg>
