<svg width="24" height="25" viewBox="0 0 24 25" fill="none" xmlns="http://www.w3.org/2000/svg">
<path d="M9.46094 4.88766C10.7409 3.46866 12.7469 2.55566 15.0009 2.55566C18.8669 2.55566 22.0009 5.24166 22.0009 8.55566C22.0009 10.5447 20.8709 12.3077 19.1329 13.3997L19.0009 13.4757V17.5257C19.0009 17.7248 18.9415 17.9193 18.8302 18.0844C18.719 18.2496 18.5609 18.3777 18.3764 18.4525C18.1919 18.5272 17.9892 18.5452 17.7944 18.5041C17.5996 18.4629 17.4215 18.3646 17.2829 18.2217L16.1429 17.0477C17.2119 15.7837 17.8409 14.2317 17.8409 12.5547C17.8409 8.48766 14.1429 5.15966 9.46094 4.88766Z" fill="white"/>
<path d="M10.385 18.4417L6.718 22.2217C6.57942 22.3646 6.40132 22.463 6.20651 22.5041C6.0117 22.5452 5.80905 22.5272 5.62452 22.4525C5.43999 22.3777 5.28197 22.2496 5.17071 22.0844C5.05945 21.9193 5.00001 21.7248 5 21.5257V17.4757L4.868 17.3997C3.129 16.3077 2 14.5447 2 12.5557C2 9.24166 5.134 6.55566 9 6.55566C12.866 6.55566 16 9.24166 16 12.5557C16 15.2817 13.879 17.5837 10.974 18.3137C10.7793 18.3637 10.5829 18.4064 10.385 18.4417Z" fill="white"/>
</svg>
