<svg width="24" height="24" viewBox="0 0 24 24" fill="none" xmlns="http://www.w3.org/2000/svg">
<path d="M11.9998 20.16C7.48784 20.16 3.83984 16.512 3.83984 12C3.83984 7.48797 7.48784 3.83997 11.9998 3.83997C16.5118 3.83997 20.1598 7.48797 20.1598 12C20.1598 16.512 16.5118 20.16 11.9998 20.16ZM11.9998 4.79997C8.01584 4.79997 4.79984 8.01597 4.79984 12C4.79984 15.984 8.01584 19.2 11.9998 19.2C15.9838 19.2 19.1998 15.984 19.1998 12C19.1998 8.01597 15.9838 4.79997 11.9998 4.79997Z" fill="white"/>
<path d="M7.67969 11.52H16.3197V12.48H7.67969V11.52Z" fill="white"/>
<path d="M11.5195 7.68005H12.4795V16.3201H11.5195V7.68005Z" fill="white"/>
</svg>
