<svg width="20" height="20" viewBox="0 0 20 20" fill="none" xmlns="http://www.w3.org/2000/svg">
<path d="M1.47615 12.4927C1.28476 13.7473 2.14042 14.6181 3.18807 15.0521C7.20455 16.716 12.7939 16.716 16.8104 15.0521C17.858 14.6181 18.7137 13.7473 18.5223 12.4927C18.4047 11.7216 17.8231 11.0796 17.3922 10.4526C16.8278 9.62134 16.7717 8.71464 16.7716 7.75C16.7716 4.02208 13.7395 1 9.99922 1C6.25893 1 3.22683 4.02208 3.22683 7.75C3.22675 8.71464 3.17067 9.62134 2.60627 10.4526C2.17537 11.0796 1.59377 11.7216 1.47615 12.4927Z" stroke="white" stroke-width="1.8" stroke-linecap="round" stroke-linejoin="round"/>
<path d="M6.39844 16.3C6.81108 17.8528 8.26642 19 9.99844 19C11.7305 19 13.1858 17.8528 13.5984 16.3" stroke="white" stroke-width="1.8" stroke-linecap="round" stroke-linejoin="round"/>
</svg>
