<svg width="24" height="25" viewBox="0 0 24 25" fill="none" xmlns="http://www.w3.org/2000/svg">
<path d="M11.25 5.80566V10.3057C11.25 10.7035 11.092 11.085 10.8107 11.3663C10.5294 11.6476 10.1478 11.8057 9.75 11.8057H5.25C4.85218 11.8057 4.47064 11.6476 4.18934 11.3663C3.90804 11.085 3.75 10.7035 3.75 10.3057V5.80566C3.75 5.40784 3.90804 5.02631 4.18934 4.745C4.47064 4.4637 4.85218 4.30566 5.25 4.30566H9.75C10.1478 4.30566 10.5294 4.4637 10.8107 4.745C11.092 5.02631 11.25 5.40784 11.25 5.80566ZM18.75 4.30566H14.25C13.8522 4.30566 13.4706 4.4637 13.1893 4.745C12.908 5.02631 12.75 5.40784 12.75 5.80566V10.3057C12.75 10.7035 12.908 11.085 13.1893 11.3663C13.4706 11.6476 13.8522 11.8057 14.25 11.8057H18.75C19.1478 11.8057 19.5294 11.6476 19.8107 11.3663C20.092 11.085 20.25 10.7035 20.25 10.3057V5.80566C20.25 5.40784 20.092 5.02631 19.8107 4.745C19.5294 4.4637 19.1478 4.30566 18.75 4.30566ZM9.75 13.3057H5.25C4.85218 13.3057 4.47064 13.4637 4.18934 13.745C3.90804 14.0263 3.75 14.4078 3.75 14.8057V19.3057C3.75 19.7035 3.90804 20.085 4.18934 20.3663C4.47064 20.6476 4.85218 20.8057 5.25 20.8057H9.75C10.1478 20.8057 10.5294 20.6476 10.8107 20.3663C11.092 20.085 11.25 19.7035 11.25 19.3057V14.8057C11.25 14.4078 11.092 14.0263 10.8107 13.745C10.5294 13.4637 10.1478 13.3057 9.75 13.3057ZM18.75 13.3057H14.25C13.8522 13.3057 13.4706 13.4637 13.1893 13.745C12.908 14.0263 12.75 14.4078 12.75 14.8057V19.3057C12.75 19.7035 12.908 20.085 13.1893 20.3663C13.4706 20.6476 13.8522 20.8057 14.25 20.8057H18.75C19.1478 20.8057 19.5294 20.6476 19.8107 20.3663C20.092 20.085 20.25 19.7035 20.25 19.3057V14.8057C20.25 14.4078 20.092 14.0263 19.8107 13.745C19.5294 13.4637 19.1478 13.3057 18.75 13.3057Z" fill="#672BB5"/>
</svg>
