<svg width="24" height="25" viewBox="0 0 24 25" fill="none" xmlns="http://www.w3.org/2000/svg">
<path d="M24 15.1557C24 15.7557 22.8 16.1557 21.4 16.3557C20.5 14.6557 18.7 13.3557 16.6 12.4557C16.8 12.1557 17 11.9557 17.2 11.6557H18C21.1 11.5557 24 13.4557 24 15.1557ZM6.8 11.5557H6C2.9 11.5557 0 13.4557 0 15.1557C0 15.7557 1.2 16.1557 2.6 16.3557C3.5 14.6557 5.3 13.3557 7.4 12.4557L6.8 11.5557ZM12 12.5557C14.2 12.5557 16 10.7557 16 8.55566C16 6.35566 14.2 4.55566 12 4.55566C9.8 4.55566 8 6.35566 8 8.55566C8 10.7557 9.8 12.5557 12 12.5557ZM12 13.5557C7.9 13.5557 4 16.1557 4 18.5557C4 20.5557 12 20.5557 12 20.5557C12 20.5557 20 20.5557 20 18.5557C20 16.1557 16.1 13.5557 12 13.5557ZM17.7 10.5557H18C19.7 10.5557 21 9.25566 21 7.55566C21 5.85566 19.7 4.55566 18 4.55566C17.5 4.55566 17.1 4.65566 16.7 4.85566C17.5 5.85566 18 7.15566 18 8.55566C18 9.25566 17.9 9.95566 17.7 10.5557ZM6 10.5557H6.3C6.1 9.95566 6 9.25566 6 8.55566C6 7.15566 6.5 5.85566 7.3 4.85566C6.9 4.65566 6.5 4.55566 6 4.55566C4.3 4.55566 3 5.85566 3 7.55566C3 9.25566 4.3 10.5557 6 10.5557Z" fill="white"/>
</svg>
