<svg width="48" height="48" viewBox="0 0 48 48" fill="none" xmlns="http://www.w3.org/2000/svg">
<rect x="1.5" y="1.5" width="45" height="45" rx="22.5" fill="#672BB5"/>
<rect x="1.5" y="1.5" width="45" height="45" rx="22.5" stroke="#111111" stroke-width="3"/>
<path d="M24 28C25.6569 28 27 26.6569 27 25C27 23.3431 25.6569 22 24 22C22.3431 22 21 23.3431 21 25C21 26.6569 22.3431 28 24 28Z" stroke="white" stroke-width="1.5"/>
<path d="M21.778 33H26.222C29.343 33 30.904 33 32.025 32.265C32.5088 31.9482 32.9254 31.5391 33.251 31.061C34 29.961 34 28.428 34 25.364C34 22.3 34 20.767 33.251 19.667C32.9254 19.189 32.5088 18.7799 32.025 18.463C31.305 17.99 30.403 17.821 29.022 17.761C28.363 17.761 27.796 17.271 27.667 16.636C27.5684 16.1709 27.3123 15.7541 26.9418 15.456C26.5714 15.1579 26.1095 14.9969 25.634 15H22.366C21.378 15 20.527 15.685 20.333 16.636C20.204 17.271 19.637 17.761 18.978 17.761C17.598 17.821 16.696 17.991 15.975 18.463C15.4915 18.78 15.0753 19.1891 14.75 19.667C14 20.767 14 22.299 14 25.364C14 28.429 14 29.96 14.749 31.061C15.073 31.537 15.489 31.946 15.975 32.265C17.096 33 18.657 33 21.778 33Z" stroke="white" stroke-width="1.5"/>
<path d="M31 22H30" stroke="white" stroke-width="1.5" stroke-linecap="round"/>
</svg>
