<svg width="16" height="20" viewBox="0 0 16 20" fill="none" xmlns="http://www.w3.org/2000/svg">
<path fill-rule="evenodd" clip-rule="evenodd" d="M8.60611 0.250684C8.44539 0.0901636 8.22752 6.56441e-07 8.00037 6.76299e-07C7.77322 6.96157e-07 7.55535 0.0901637 7.39463 0.250685L0.537231 7.10809C0.453015 7.18656 0.385467 7.28119 0.338618 7.38634C0.291768 7.49149 0.266577 7.60499 0.264546 7.72008C0.262516 7.83518 0.283686 7.9495 0.326798 8.05623C0.36991 8.16297 0.434078 8.25992 0.515474 8.34132C0.596869 8.42272 0.693826 8.48688 0.80056 8.52999C0.907293 8.57311 1.02162 8.59428 1.13671 8.59225C1.2518 8.59022 1.36531 8.56502 1.47045 8.51818C1.5756 8.47133 1.67023 8.40378 1.74871 8.31956L7.1432 2.92507L7.1432 19.1428C7.1432 19.3702 7.23351 19.5882 7.39426 19.7489C7.55501 19.9097 7.77303 20 8.00037 20C8.22771 20 8.44573 19.9097 8.60649 19.7489C8.76724 19.5882 8.85755 19.3702 8.85755 19.1428L8.85755 2.92507L14.252 8.31956C14.3305 8.40378 14.4251 8.47132 14.5303 8.51817C14.6354 8.56502 14.7489 8.59022 14.864 8.59225C14.9791 8.59428 15.0934 8.5731 15.2002 8.52999C15.3069 8.48688 15.4039 8.42271 15.4853 8.34132C15.5667 8.25992 15.6308 8.16297 15.6739 8.05623C15.7171 7.9495 15.7382 7.83518 15.7362 7.72008C15.7342 7.60499 15.709 7.49148 15.6621 7.38634C15.6153 7.28119 15.5477 7.18656 15.4635 7.10809L8.60611 0.250684Z" fill="white"/>
</svg>
