<svg width="24" height="25" viewBox="0 0 24 25" fill="none" xmlns="http://www.w3.org/2000/svg">
<path d="M19.5006 12.5557C19.5006 12.3257 19.4906 12.1057 19.4706 11.8757L21.3306 10.4657C21.7306 10.1657 21.8406 9.60566 21.5906 9.16566L19.7206 5.93566C19.6007 5.72385 19.4068 5.56381 19.1761 5.48628C18.9454 5.40876 18.6941 5.41922 18.4706 5.51566L16.3206 6.42566C15.9506 6.16566 15.5606 5.93566 15.1506 5.74566L14.8606 3.43566C14.8006 2.93566 14.3706 2.55566 13.8706 2.55566H10.1406C9.63064 2.55566 9.20064 2.93566 9.14064 3.43566L8.85064 5.74566C8.44064 5.93566 8.05064 6.16566 7.68064 6.42566L5.53064 5.51566C5.07064 5.31566 4.53064 5.49566 4.28064 5.93566L2.41064 9.17566C2.16064 9.61566 2.27064 10.1657 2.67064 10.4757L4.53064 11.8857C4.48894 12.3347 4.48894 12.7866 4.53064 13.2357L2.67064 14.6457C2.27064 14.9457 2.16064 15.5057 2.41064 15.9457L4.28064 19.1757C4.53064 19.6157 5.07064 19.7957 5.53064 19.5957L7.68064 18.6857C8.05064 18.9457 8.44064 19.1757 8.85064 19.3657L9.14064 21.6757C9.20064 22.1757 9.63064 22.5557 10.1306 22.5557H13.8606C14.3606 22.5557 14.7906 22.1757 14.8506 21.6757L15.1406 19.3657C15.5506 19.1757 15.9406 18.9457 16.3106 18.6857L18.4606 19.5957C18.9206 19.7957 19.4606 19.6157 19.7106 19.1757L21.5806 15.9457C21.8306 15.5057 21.7206 14.9557 21.3206 14.6457L19.4606 13.2357C19.4906 13.0057 19.5006 12.7857 19.5006 12.5557ZM12.0406 16.0557C10.1106 16.0557 8.54064 14.4857 8.54064 12.5557C8.54064 10.6257 10.1106 9.05566 12.0406 9.05566C13.9706 9.05566 15.5406 10.6257 15.5406 12.5557C15.5406 14.4857 13.9706 16.0557 12.0406 16.0557Z" fill="#672BB5"/>
</svg>
