<svg width="180" height="180" viewBox="0 0 180 180" fill="none" xmlns="http://www.w3.org/2000/svg">
<circle cx="90" cy="90" r="75" fill="#1DAB61" fill-opacity="0.1"/>
<circle cx="90" cy="90" r="90" fill="#1DAB61" fill-opacity="0.1"/>
<circle cx="90" cy="91" r="60" fill="#1DAB61" fill-opacity="0.8"/>
<path d="M114.652 74.4794C115.719 77.2409 114.222 79.1315 111.325 80.9939C108.988 82.4965 106.01 84.1244 102.854 86.9075C99.7609 89.6357 96.742 92.9218 94.0592 96.1562C91.3872 99.3774 89.1162 102.465 87.5115 104.751C86.4746 106.229 85.0275 108.432 85.0275 108.432C84.007 110.047 82.1724 111.024 80.2052 111C78.2375 110.975 76.4302 109.953 75.4539 108.313C72.9582 104.12 71.0324 102.464 70.1473 101.87C67.7789 100.278 65 100.043 65 96.3339C65 93.3885 67.4872 91.0007 70.5554 91.0007C72.7215 91.0807 74.735 91.9326 76.5189 93.1314C77.6592 93.8977 78.8672 94.9112 80.1237 96.2454C81.5984 94.234 83.3754 91.9134 85.3675 89.5118C88.2604 86.0242 91.6752 82.2827 95.3372 79.0529C98.937 75.8779 103.099 72.9059 107.511 71.3345C110.387 70.3099 113.584 71.7179 114.652 74.4794Z" fill="white" stroke="white" stroke-width="1.5" stroke-linecap="round" stroke-linejoin="round"/>
</svg>
