<svg width="24" height="25" viewBox="0 0 24 25" fill="none" xmlns="http://www.w3.org/2000/svg">
<path d="M9.39969 11.0557L14.1697 2.79565C12.6947 2.46595 11.1641 2.47556 9.69341 2.82375C8.2227 3.17194 6.85027 3.84962 5.67969 4.80565L9.33969 11.1557L9.39969 11.0557ZM21.5397 9.55565C20.6197 6.63565 18.3897 4.29565 15.5397 3.21565L11.8797 9.55565H21.5397ZM21.7997 10.5557H14.3097L14.5997 11.0557L19.3597 19.3057C21.0613 17.4703 22.0046 15.0585 21.9997 12.5557C21.9997 11.8657 21.9297 11.2057 21.7997 10.5557ZM8.53969 12.5557L4.63969 5.80565C3.56833 6.96619 2.78834 8.36488 2.36408 9.88629C1.93983 11.4077 1.88348 13.0082 2.19969 14.5557H9.68969L8.53969 12.5557ZM2.45969 15.5557C3.37969 18.4757 5.60969 20.8157 8.45969 21.8957L12.1197 15.5557H2.45969ZM13.7297 15.5557L9.82969 22.3157C11.3047 22.6453 12.8353 22.6357 14.306 22.2875C15.7767 21.9394 17.1491 21.2617 18.3197 20.3057L14.6597 13.9557L13.7297 15.5557Z" fill="white"/>
</svg>
