<svg width="360" height="61" viewBox="0 0 360 61" fill="none" xmlns="http://www.w3.org/2000/svg">
<g clip-path="url(#clip0_73_420)">
<path d="M32.5986 41.2525C38.2781 32.9817 41.9108 24.5979 46.4538 15.791C47.5729 13.6204 49.9937 8.8446 52.7625 8.77795C58.2245 8.64754 59.2479 14.3681 59.5176 18.6629C59.8742 24.3284 58.9058 31.979 60.3525 37.2909C62.3008 44.4518 69.514 36.4853 72.2102 34.1612C73.1205 34.1409 73.7845 36.4129 73.9207 37.1518C75.0108 43.1361 69.1892 48.2018 63.9881 49.758C57.5171 51.6909 51.855 49.1552 49.3965 42.8782C47.8194 38.8558 47.6773 33.4309 48.2107 29.1709C48.2397 28.9506 48.1875 29.0086 47.9962 29.0144C46.477 32.7354 44.7752 36.4158 42.9052 39.9774C38.8609 47.6801 31.9985 59.214 22.524 60.4282C6.87416 62.4307 7.67433 40.7685 11.1794 31.0285L9.46603 32.1645C6.30012 33.9873 0.92503 34.2307 0.119056 29.7273C0.0552743 29.365 -0.0954833 28.4261 0.10746 28.1769C5.56083 24.8268 9.76754 19.8308 13.0639 14.3971C14.7599 11.6006 16.1284 8.61277 17.7664 5.78726C19.5668 2.67775 21.6107 -0.964982 25.8203 0.23767C31.0968 1.74461 29.2472 11.2064 28.476 15.1506C26.9916 22.7403 24.2345 30.2199 22.9646 37.8271C22.4892 40.6729 21.5121 46.9759 24.7911 48.4597C26.4727 49.2189 27.8817 47.4222 28.8587 46.2891C30.1981 44.7358 31.4419 42.9449 32.6044 41.2525H32.5986Z" fill="#672BB5"/>
</g>
<path d="M93.7137 19.4348H98.0602V32.5207C98.0602 35.3977 97.2094 37.7024 95.5234 39.4503C93.8374 41.1982 91.4863 42.0644 88.4701 42.0644C85.4229 42.0644 83.0718 41.1982 81.4012 39.4658C79.7307 37.7334 78.8954 35.4132 78.8954 32.5207V19.4348H83.3038V32.4588C83.3038 34.1448 83.7524 35.506 84.6495 36.5269C85.5466 37.5478 86.8305 38.0582 88.4855 38.0582C90.1715 38.0582 91.4709 37.5478 92.368 36.5269C93.2651 35.506 93.7137 34.1448 93.7137 32.4588V19.4348Z" fill="white"/>
<path d="M110.744 25.1425H110.714C112.956 25.1425 114.828 25.9468 116.344 27.5555C117.86 29.1642 118.618 31.175 118.618 33.6034C118.618 36.001 117.86 38.0118 116.344 39.6359C114.828 41.2601 112.956 42.0644 110.744 42.0644C108.564 42.0644 106.831 41.2601 105.547 39.6514V41.6158H101.371V18.4913H105.547V27.5246C106.816 25.9314 108.548 25.1425 110.744 25.1425ZM109.987 38.3212V38.3521C111.301 38.3521 112.384 37.9035 113.235 37.0219C114.086 36.1402 114.503 34.9956 114.503 33.6034C114.503 32.2268 114.086 31.0976 113.235 30.216C112.384 29.3343 111.301 28.9012 109.987 28.9012C108.703 28.9012 107.62 29.3498 106.738 30.2314C105.857 31.1131 105.424 32.2268 105.424 33.5725C105.424 34.9492 105.857 36.0783 106.738 36.9754C107.62 37.8726 108.703 38.3212 109.987 38.3212Z" fill="white"/>
<path d="M128.765 42.0644H128.734C126.259 42.0644 124.218 41.2601 122.594 39.6359C120.969 38.0118 120.165 36.001 120.165 33.588C120.165 31.175 120.985 29.1642 122.609 27.5555C124.233 25.9468 126.275 25.1425 128.75 25.1425C131.225 25.1425 133.266 25.9468 134.89 27.5555C136.515 29.1642 137.319 31.175 137.319 33.588C137.319 36.001 136.515 38.0118 134.89 39.6359C133.266 41.2601 131.225 42.0644 128.765 42.0644ZM128.734 38.2593C130.065 38.2593 131.147 37.8262 131.983 36.9445C132.818 36.0628 133.235 34.9492 133.235 33.6034C133.235 32.2577 132.818 31.144 131.983 30.2624C131.147 29.3807 130.065 28.9476 128.734 28.9476C127.404 28.9476 126.321 29.3807 125.486 30.2624C124.651 31.144 124.233 32.2577 124.233 33.6034C124.233 34.9492 124.651 36.0628 125.486 36.9445C126.321 37.8262 127.404 38.2593 128.734 38.2593Z" fill="white"/>
<path d="M149.199 25.1425V25.158C151.256 25.158 152.818 25.7922 153.901 27.0605C154.984 28.3289 155.525 30.0613 155.525 32.2577V41.6313H151.333V33.0466C151.333 31.7937 151.04 30.8192 150.467 30.1077C149.895 29.3962 149.044 29.0404 147.915 29.0404C146.755 29.0404 145.827 29.458 145.115 30.3088C144.404 31.1595 144.048 32.2887 144.048 33.6963V41.6158H139.872V18.4913H144.048V27.6174C145.332 25.9623 147.049 25.1425 149.199 25.1425Z" fill="white"/>
<path d="M166.446 42.0644H166.415C163.94 42.0644 161.899 41.2601 160.275 39.6359C158.65 38.0118 157.846 36.001 157.846 33.588C157.846 31.175 158.666 29.1642 160.29 27.5555C161.914 25.9468 163.956 25.1425 166.431 25.1425C168.906 25.1425 170.947 25.9468 172.572 27.5555C174.196 29.1642 175 31.175 175 33.588C175 36.001 174.196 38.0118 172.572 39.6359C170.947 41.2601 168.906 42.0644 166.446 42.0644ZM166.415 38.2593C167.746 38.2593 168.828 37.8262 169.664 36.9445C170.499 36.0628 170.916 34.9492 170.916 33.6034C170.916 32.2577 170.499 31.144 169.664 30.2624C168.828 29.3807 167.746 28.9476 166.415 28.9476C165.085 28.9476 164.002 29.3807 163.167 30.2624C162.332 31.144 161.914 32.2577 161.914 33.6034C161.914 34.9492 162.332 36.0628 163.167 36.9445C164.002 37.8262 165.085 38.2593 166.415 38.2593Z" fill="white"/>
<defs>
<clipPath id="clip0_73_420">
<rect width="74.051" height="60.5557" fill="white"/>
</clipPath>
</defs>
</svg>
